<mxfile host="app.diagrams.net" modified="2024-04-02T15:46:19.625Z" agent="Mozilla/5.0 (Windows NT 10.0; Win64; x64) AppleWebKit/537.36 (KHTML, like Gecko) Chrome/123.0.0.0 Safari/537.36 Edg/123.0.0.0" etag="ZGGjZxQU_cxhlasQZY4r" version="24.2.1" type="device">
  <diagram name="Page-1" id="mZsSM9UEbyp9xzuLBz44">
    <mxGraphModel dx="2010" dy="1059" grid="1" gridSize="10" guides="1" tooltips="1" connect="1" arrows="1" fold="1" page="1" pageScale="1" pageWidth="850" pageHeight="1100" math="0" shadow="0">
      <root>
        <mxCell id="0" />
        <mxCell id="1" parent="0" />
        <mxCell id="euWzKXSYzq6Le16y2sov-1" value="" style="endArrow=none;dashed=1;html=1;dashPattern=1 3;strokeWidth=2;rounded=0;" parent="1" edge="1">
          <mxGeometry width="50" height="50" relative="1" as="geometry">
            <mxPoint x="200" y="1070" as="sourcePoint" />
            <mxPoint x="200" y="40" as="targetPoint" />
          </mxGeometry>
        </mxCell>
        <mxCell id="euWzKXSYzq6Le16y2sov-2" value="Frontend" style="rounded=1;whiteSpace=wrap;html=1;fillColor=#f8cecc;strokeColor=#b85450;fontStyle=1" parent="1" vertex="1">
          <mxGeometry x="30" y="360" width="110" height="110" as="geometry" />
        </mxCell>
        <mxCell id="euWzKXSYzq6Le16y2sov-11" value="" style="rounded=0;orthogonalLoop=1;jettySize=auto;html=1;endArrow=halfCircle;endFill=0;endSize=6;strokeWidth=1;sketch=0;exitX=1;exitY=0.5;exitDx=0;exitDy=0;fontStyle=1" parent="1" source="euWzKXSYzq6Le16y2sov-2" edge="1">
          <mxGeometry relative="1" as="geometry">
            <mxPoint x="250" y="410" as="sourcePoint" />
            <mxPoint x="260" y="415" as="targetPoint" />
          </mxGeometry>
        </mxCell>
        <mxCell id="euWzKXSYzq6Le16y2sov-12" value="" style="rounded=0;orthogonalLoop=1;jettySize=auto;html=1;endArrow=oval;endFill=0;sketch=0;sourcePerimeterSpacing=0;targetPerimeterSpacing=0;endSize=10;exitX=0;exitY=0.5;exitDx=0;exitDy=0;fontStyle=1" parent="1" source="euWzKXSYzq6Le16y2sov-14" edge="1">
          <mxGeometry relative="1" as="geometry">
            <mxPoint x="270" y="455" as="sourcePoint" />
            <mxPoint x="260" y="415" as="targetPoint" />
          </mxGeometry>
        </mxCell>
        <mxCell id="euWzKXSYzq6Le16y2sov-13" value="" style="ellipse;whiteSpace=wrap;html=1;align=center;aspect=fixed;fillColor=none;strokeColor=none;resizable=0;perimeter=centerPerimeter;rotatable=0;allowArrows=0;points=[];outlineConnect=1;fontStyle=1" parent="1" vertex="1">
          <mxGeometry x="225" y="405" width="10" height="10" as="geometry" />
        </mxCell>
        <mxCell id="euWzKXSYzq6Le16y2sov-14" value="API Gateway" style="whiteSpace=wrap;html=1;aspect=fixed;fillColor=#d5e8d4;strokeColor=#82b366;fontStyle=1" parent="1" vertex="1">
          <mxGeometry x="290" y="375" width="80" height="80" as="geometry" />
        </mxCell>
        <mxCell id="euWzKXSYzq6Le16y2sov-15" value="Stream Gateway" style="whiteSpace=wrap;html=1;aspect=fixed;fillColor=#d5e8d4;strokeColor=#82b366;fontStyle=1" parent="1" vertex="1">
          <mxGeometry x="290" y="832.5" width="80" height="80" as="geometry" />
        </mxCell>
        <mxCell id="euWzKXSYzq6Le16y2sov-16" value="" style="rounded=0;orthogonalLoop=1;jettySize=auto;html=1;endArrow=halfCircle;endFill=0;endSize=6;strokeWidth=1;sketch=0;exitX=1.002;exitY=0.711;exitDx=0;exitDy=0;exitPerimeter=0;fontStyle=1" parent="1" source="euWzKXSYzq6Le16y2sov-2" edge="1">
          <mxGeometry relative="1" as="geometry">
            <mxPoint x="290" y="1040" as="sourcePoint" />
            <mxPoint x="260" y="870" as="targetPoint" />
          </mxGeometry>
        </mxCell>
        <mxCell id="euWzKXSYzq6Le16y2sov-17" value="" style="rounded=0;orthogonalLoop=1;jettySize=auto;html=1;endArrow=oval;endFill=0;sketch=0;sourcePerimeterSpacing=0;targetPerimeterSpacing=0;endSize=10;exitX=0;exitY=0.5;exitDx=0;exitDy=0;fontStyle=1" parent="1" source="euWzKXSYzq6Le16y2sov-15" edge="1">
          <mxGeometry relative="1" as="geometry">
            <mxPoint x="290" y="742.5" as="sourcePoint" />
            <mxPoint x="260" y="872.5" as="targetPoint" />
          </mxGeometry>
        </mxCell>
        <mxCell id="euWzKXSYzq6Le16y2sov-18" value="" style="ellipse;whiteSpace=wrap;html=1;align=center;aspect=fixed;fillColor=none;strokeColor=none;resizable=0;perimeter=centerPerimeter;rotatable=0;allowArrows=0;points=[];outlineConnect=1;fontStyle=1" parent="1" vertex="1">
          <mxGeometry x="250" y="515" width="10" height="10" as="geometry" />
        </mxCell>
        <mxCell id="euWzKXSYzq6Le16y2sov-19" value="" style="rounded=0;orthogonalLoop=1;jettySize=auto;html=1;endArrow=halfCircle;endFill=0;endSize=6;strokeWidth=1;sketch=0;fontStyle=1;exitX=0.5;exitY=1;exitDx=0;exitDy=0;" parent="1" source="euWzKXSYzq6Le16y2sov-14" edge="1">
          <mxGeometry relative="1" as="geometry">
            <mxPoint x="330" y="765" as="sourcePoint" />
            <mxPoint x="330" y="795" as="targetPoint" />
          </mxGeometry>
        </mxCell>
        <mxCell id="euWzKXSYzq6Le16y2sov-20" value="" style="rounded=0;orthogonalLoop=1;jettySize=auto;html=1;endArrow=oval;endFill=0;sketch=0;sourcePerimeterSpacing=0;targetPerimeterSpacing=0;endSize=10;fontStyle=1" parent="1" edge="1">
          <mxGeometry relative="1" as="geometry">
            <mxPoint x="330" y="810" as="sourcePoint" />
            <mxPoint x="330" y="795" as="targetPoint" />
          </mxGeometry>
        </mxCell>
        <mxCell id="euWzKXSYzq6Le16y2sov-21" value="" style="ellipse;whiteSpace=wrap;html=1;align=center;aspect=fixed;fillColor=none;strokeColor=none;resizable=0;perimeter=centerPerimeter;rotatable=0;allowArrows=0;points=[];outlineConnect=1;fontStyle=1" parent="1" vertex="1">
          <mxGeometry x="360" y="782.5" width="10" height="10" as="geometry" />
        </mxCell>
        <mxCell id="euWzKXSYzq6Le16y2sov-23" value="" style="rounded=0;orthogonalLoop=1;jettySize=auto;html=1;endArrow=oval;endFill=0;sketch=0;sourcePerimeterSpacing=0;targetPerimeterSpacing=0;endSize=10;exitX=0.5;exitY=0;exitDx=0;exitDy=0;fontStyle=1" parent="1" source="euWzKXSYzq6Le16y2sov-15" edge="1">
          <mxGeometry relative="1" as="geometry">
            <mxPoint x="330" y="810" as="sourcePoint" />
            <mxPoint x="330" y="795" as="targetPoint" />
          </mxGeometry>
        </mxCell>
        <mxCell id="euWzKXSYzq6Le16y2sov-24" value="" style="ellipse;whiteSpace=wrap;html=1;align=center;aspect=fixed;fillColor=none;strokeColor=none;resizable=0;perimeter=centerPerimeter;rotatable=0;allowArrows=0;points=[];outlineConnect=1;fontStyle=1" parent="1" vertex="1">
          <mxGeometry x="360" y="782.5" width="10" height="10" as="geometry" />
        </mxCell>
        <mxCell id="euWzKXSYzq6Le16y2sov-25" value="Stream Service" style="ellipse;whiteSpace=wrap;html=1;fillColor=#dae8fc;strokeColor=#6c8ebf;fontStyle=1" parent="1" vertex="1">
          <mxGeometry x="445" y="832.5" width="120" height="80" as="geometry" />
        </mxCell>
        <mxCell id="euWzKXSYzq6Le16y2sov-26" value="" style="rounded=0;orthogonalLoop=1;jettySize=auto;html=1;endArrow=halfCircle;endFill=0;endSize=6;strokeWidth=1;sketch=0;exitX=1;exitY=0.5;exitDx=0;exitDy=0;fontStyle=1" parent="1" source="euWzKXSYzq6Le16y2sov-15" target="euWzKXSYzq6Le16y2sov-28" edge="1">
          <mxGeometry relative="1" as="geometry">
            <mxPoint x="480" y="877.5" as="sourcePoint" />
          </mxGeometry>
        </mxCell>
        <mxCell id="euWzKXSYzq6Le16y2sov-27" value="" style="rounded=0;orthogonalLoop=1;jettySize=auto;html=1;endArrow=oval;endFill=0;sketch=0;sourcePerimeterSpacing=0;targetPerimeterSpacing=0;endSize=10;exitX=0;exitY=0.5;exitDx=0;exitDy=0;fontStyle=1" parent="1" source="euWzKXSYzq6Le16y2sov-25" target="euWzKXSYzq6Le16y2sov-28" edge="1">
          <mxGeometry relative="1" as="geometry">
            <mxPoint x="405" y="872.5" as="sourcePoint" />
          </mxGeometry>
        </mxCell>
        <mxCell id="euWzKXSYzq6Le16y2sov-28" value="" style="ellipse;whiteSpace=wrap;html=1;align=center;aspect=fixed;fillColor=none;strokeColor=none;resizable=0;perimeter=centerPerimeter;rotatable=0;allowArrows=0;points=[];outlineConnect=1;fontStyle=1" parent="1" vertex="1">
          <mxGeometry x="420" y="867.5" width="10" height="10" as="geometry" />
        </mxCell>
        <mxCell id="euWzKXSYzq6Le16y2sov-30" value="Payment Proxy" style="ellipse;whiteSpace=wrap;html=1;fillColor=#ffe6cc;strokeColor=#d79b00;fontStyle=1" parent="1" vertex="1">
          <mxGeometry x="580" y="375" width="120" height="80" as="geometry" />
        </mxCell>
        <mxCell id="euWzKXSYzq6Le16y2sov-33" value="External Payment Server" style="ellipse;shape=cloud;whiteSpace=wrap;html=1;fontStyle=1" parent="1" vertex="1">
          <mxGeometry x="885" y="375" width="120" height="80" as="geometry" />
        </mxCell>
        <mxCell id="euWzKXSYzq6Le16y2sov-34" value="Movie Content&lt;br&gt;Metadata&lt;br&gt;&lt;div&gt;DB&lt;/div&gt;" style="shape=cylinder3;whiteSpace=wrap;html=1;boundedLbl=1;backgroundOutline=1;size=15;fillColor=#f5f5f5;fontColor=#333333;strokeColor=#666666;fontStyle=1" parent="1" vertex="1">
          <mxGeometry x="755" y="640" width="80" height="100" as="geometry" />
        </mxCell>
        <mxCell id="euWzKXSYzq6Le16y2sov-35" value="" style="endArrow=classic;html=1;rounded=0;exitX=1;exitY=0.5;exitDx=0;exitDy=0;entryX=0;entryY=0.5;entryDx=0;entryDy=0;entryPerimeter=0;fontStyle=1" parent="1" source="8z9Pnd3FHtiSmqOoGasJ-1" target="euWzKXSYzq6Le16y2sov-34" edge="1">
          <mxGeometry width="50" height="50" relative="1" as="geometry">
            <mxPoint x="340" y="1005" as="sourcePoint" />
            <mxPoint x="390" y="955" as="targetPoint" />
          </mxGeometry>
        </mxCell>
        <mxCell id="euWzKXSYzq6Le16y2sov-36" value="" style="endArrow=classic;html=1;rounded=0;exitX=1;exitY=0.5;exitDx=0;exitDy=0;entryX=0.067;entryY=0.481;entryDx=0;entryDy=0;entryPerimeter=0;fontStyle=1" parent="1" source="euWzKXSYzq6Le16y2sov-30" target="euWzKXSYzq6Le16y2sov-33" edge="1">
          <mxGeometry width="50" height="50" relative="1" as="geometry">
            <mxPoint x="855" y="415" as="sourcePoint" />
            <mxPoint x="875" y="415" as="targetPoint" />
          </mxGeometry>
        </mxCell>
        <mxCell id="euWzKXSYzq6Le16y2sov-37" value="License Proxy" style="ellipse;whiteSpace=wrap;html=1;fillColor=#ffe6cc;strokeColor=#d79b00;fontStyle=1" parent="1" vertex="1">
          <mxGeometry x="580" y="470" width="120" height="80" as="geometry" />
        </mxCell>
        <mxCell id="euWzKXSYzq6Le16y2sov-38" value="External License Server" style="ellipse;shape=cloud;whiteSpace=wrap;html=1;fontStyle=1" parent="1" vertex="1">
          <mxGeometry x="885" y="470" width="120" height="80" as="geometry" />
        </mxCell>
        <mxCell id="euWzKXSYzq6Le16y2sov-39" value="" style="endArrow=classic;html=1;rounded=0;exitX=1;exitY=0.5;exitDx=0;exitDy=0;entryX=0.067;entryY=0.481;entryDx=0;entryDy=0;entryPerimeter=0;fontStyle=1" parent="1" source="euWzKXSYzq6Le16y2sov-37" target="euWzKXSYzq6Le16y2sov-38" edge="1">
          <mxGeometry width="50" height="50" relative="1" as="geometry">
            <mxPoint x="855" y="510" as="sourcePoint" />
            <mxPoint x="875" y="510" as="targetPoint" />
          </mxGeometry>
        </mxCell>
        <mxCell id="euWzKXSYzq6Le16y2sov-40" value="Authorization Service" style="ellipse;whiteSpace=wrap;html=1;fillColor=#dae8fc;strokeColor=#6c8ebf;fontStyle=1" parent="1" vertex="1">
          <mxGeometry x="465" y="245" width="120" height="80" as="geometry" />
        </mxCell>
        <mxCell id="euWzKXSYzq6Le16y2sov-41" value="" style="rounded=0;orthogonalLoop=1;jettySize=auto;html=1;endArrow=halfCircle;endFill=0;endSize=6;strokeWidth=1;sketch=0;exitX=1;exitY=0.25;exitDx=0;exitDy=0;fontStyle=1" parent="1" source="euWzKXSYzq6Le16y2sov-14" target="euWzKXSYzq6Le16y2sov-43" edge="1">
          <mxGeometry relative="1" as="geometry">
            <mxPoint x="337.5" y="165" as="sourcePoint" />
          </mxGeometry>
        </mxCell>
        <mxCell id="euWzKXSYzq6Le16y2sov-42" value="" style="rounded=0;orthogonalLoop=1;jettySize=auto;html=1;endArrow=oval;endFill=0;sketch=0;sourcePerimeterSpacing=0;targetPerimeterSpacing=0;endSize=10;exitX=0;exitY=0.5;exitDx=0;exitDy=0;fontStyle=1" parent="1" source="euWzKXSYzq6Le16y2sov-40" target="euWzKXSYzq6Le16y2sov-43" edge="1">
          <mxGeometry relative="1" as="geometry">
            <mxPoint x="485" y="285" as="sourcePoint" />
          </mxGeometry>
        </mxCell>
        <mxCell id="euWzKXSYzq6Le16y2sov-43" value="" style="ellipse;whiteSpace=wrap;html=1;align=center;aspect=fixed;fillColor=none;strokeColor=none;resizable=0;perimeter=centerPerimeter;rotatable=0;allowArrows=0;points=[];outlineConnect=1;fontStyle=1" parent="1" vertex="1">
          <mxGeometry x="440" y="280" width="10" height="10" as="geometry" />
        </mxCell>
        <mxCell id="euWzKXSYzq6Le16y2sov-44" value="User Account DB" style="shape=cylinder3;whiteSpace=wrap;html=1;boundedLbl=1;backgroundOutline=1;size=15;fillColor=#f5f5f5;fontColor=#333333;strokeColor=#666666;fontStyle=1" parent="1" vertex="1">
          <mxGeometry x="495" y="115" width="60" height="80" as="geometry" />
        </mxCell>
        <mxCell id="euWzKXSYzq6Le16y2sov-45" value="" style="endArrow=classic;html=1;rounded=0;exitX=0.5;exitY=0;exitDx=0;exitDy=0;entryX=0.5;entryY=1;entryDx=0;entryDy=0;entryPerimeter=0;fontStyle=1" parent="1" source="euWzKXSYzq6Le16y2sov-40" target="euWzKXSYzq6Le16y2sov-44" edge="1">
          <mxGeometry width="50" height="50" relative="1" as="geometry">
            <mxPoint x="430" y="115" as="sourcePoint" />
            <mxPoint x="527.5" y="155" as="targetPoint" />
          </mxGeometry>
        </mxCell>
        <mxCell id="euWzKXSYzq6Le16y2sov-46" value="" style="rounded=0;orthogonalLoop=1;jettySize=auto;html=1;endArrow=halfCircle;endFill=0;endSize=6;strokeWidth=1;sketch=0;exitX=1;exitY=0.5;exitDx=0;exitDy=0;fontStyle=1" parent="1" source="euWzKXSYzq6Le16y2sov-14" edge="1">
          <mxGeometry relative="1" as="geometry">
            <mxPoint x="710" y="360" as="sourcePoint" />
            <mxPoint x="560" y="415" as="targetPoint" />
          </mxGeometry>
        </mxCell>
        <mxCell id="euWzKXSYzq6Le16y2sov-47" value="" style="rounded=0;orthogonalLoop=1;jettySize=auto;html=1;endArrow=oval;endFill=0;sketch=0;sourcePerimeterSpacing=0;targetPerimeterSpacing=0;endSize=10;exitX=0;exitY=0.5;exitDx=0;exitDy=0;fontStyle=1" parent="1" source="euWzKXSYzq6Le16y2sov-30" edge="1">
          <mxGeometry relative="1" as="geometry">
            <mxPoint x="785" y="360" as="sourcePoint" />
            <mxPoint x="560" y="415" as="targetPoint" />
          </mxGeometry>
        </mxCell>
        <mxCell id="euWzKXSYzq6Le16y2sov-48" value="" style="ellipse;whiteSpace=wrap;html=1;align=center;aspect=fixed;fillColor=none;strokeColor=none;resizable=0;perimeter=centerPerimeter;rotatable=0;allowArrows=0;points=[];outlineConnect=1;fontStyle=1" parent="1" vertex="1">
          <mxGeometry x="840" y="355" width="10" height="10" as="geometry" />
        </mxCell>
        <mxCell id="euWzKXSYzq6Le16y2sov-52" value="" style="rounded=0;orthogonalLoop=1;jettySize=auto;html=1;endArrow=halfCircle;endFill=0;endSize=6;strokeWidth=1;sketch=0;exitX=1;exitY=0.75;exitDx=0;exitDy=0;fontStyle=1" parent="1" source="euWzKXSYzq6Le16y2sov-14" target="euWzKXSYzq6Le16y2sov-54" edge="1">
          <mxGeometry relative="1" as="geometry">
            <mxPoint x="440" y="535" as="sourcePoint" />
          </mxGeometry>
        </mxCell>
        <mxCell id="euWzKXSYzq6Le16y2sov-53" value="" style="rounded=0;orthogonalLoop=1;jettySize=auto;html=1;endArrow=oval;endFill=0;sketch=0;sourcePerimeterSpacing=0;targetPerimeterSpacing=0;endSize=10;exitX=0;exitY=0.5;exitDx=0;exitDy=0;fontStyle=1" parent="1" source="euWzKXSYzq6Le16y2sov-37" target="euWzKXSYzq6Le16y2sov-54" edge="1">
          <mxGeometry relative="1" as="geometry">
            <mxPoint x="515" y="510" as="sourcePoint" />
          </mxGeometry>
        </mxCell>
        <mxCell id="euWzKXSYzq6Le16y2sov-54" value="" style="ellipse;whiteSpace=wrap;html=1;align=center;aspect=fixed;fillColor=none;strokeColor=none;resizable=0;perimeter=centerPerimeter;rotatable=0;allowArrows=0;points=[];outlineConnect=1;fontStyle=1" parent="1" vertex="1">
          <mxGeometry x="555" y="505" width="10" height="10" as="geometry" />
        </mxCell>
        <mxCell id="euWzKXSYzq6Le16y2sov-55" value="" style="rounded=0;orthogonalLoop=1;jettySize=auto;html=1;endArrow=halfCircle;endFill=0;endSize=6;strokeWidth=1;sketch=0;exitX=0.798;exitY=0.998;exitDx=0;exitDy=0;exitPerimeter=0;fontStyle=1" parent="1" source="euWzKXSYzq6Le16y2sov-14" target="euWzKXSYzq6Le16y2sov-57" edge="1">
          <mxGeometry relative="1" as="geometry">
            <mxPoint x="370" y="824.1" as="sourcePoint" />
          </mxGeometry>
        </mxCell>
        <mxCell id="euWzKXSYzq6Le16y2sov-56" value="" style="rounded=0;orthogonalLoop=1;jettySize=auto;html=1;endArrow=oval;endFill=0;sketch=0;sourcePerimeterSpacing=0;targetPerimeterSpacing=0;endSize=10;exitX=0.5;exitY=0;exitDx=0;exitDy=0;fontStyle=1" parent="1" source="euWzKXSYzq6Le16y2sov-25" target="euWzKXSYzq6Le16y2sov-57" edge="1">
          <mxGeometry relative="1" as="geometry">
            <mxPoint x="483.82677438625683" y="832.5042538996214" as="sourcePoint" />
          </mxGeometry>
        </mxCell>
        <mxCell id="euWzKXSYzq6Le16y2sov-57" value="" style="ellipse;whiteSpace=wrap;html=1;align=center;aspect=fixed;fillColor=none;strokeColor=none;resizable=0;perimeter=centerPerimeter;rotatable=0;allowArrows=0;points=[];outlineConnect=1;fontStyle=1" parent="1" vertex="1">
          <mxGeometry x="500" y="802.5" width="10" height="10" as="geometry" />
        </mxCell>
        <mxCell id="Pq9NqkpWgCPSY480fqht-1" value="CLIENT" style="text;html=1;align=center;verticalAlign=middle;whiteSpace=wrap;rounded=0;fontStyle=1" parent="1" vertex="1">
          <mxGeometry x="55" y="55" width="60" height="30" as="geometry" />
        </mxCell>
        <mxCell id="Pq9NqkpWgCPSY480fqht-2" value="SERWER" style="text;html=1;align=center;verticalAlign=middle;whiteSpace=wrap;rounded=0;fontStyle=1" parent="1" vertex="1">
          <mxGeometry x="410" y="55" width="60" height="30" as="geometry" />
        </mxCell>
        <mxCell id="Pq9NqkpWgCPSY480fqht-3" value="EXTERNAL ENVIRONMENT" style="text;html=1;align=center;verticalAlign=middle;whiteSpace=wrap;rounded=0;fontStyle=1" parent="1" vertex="1">
          <mxGeometry x="890" y="55" width="110" height="30" as="geometry" />
        </mxCell>
        <mxCell id="Pq9NqkpWgCPSY480fqht-4" value="" style="endArrow=none;dashed=1;html=1;dashPattern=1 3;strokeWidth=2;rounded=0;" parent="1" edge="1">
          <mxGeometry width="50" height="50" relative="1" as="geometry">
            <mxPoint x="875" y="1080" as="sourcePoint" />
            <mxPoint x="875" y="40" as="targetPoint" />
          </mxGeometry>
        </mxCell>
        <mxCell id="Pq9NqkpWgCPSY480fqht-5" value="" style="endArrow=none;dashed=1;html=1;dashPattern=1 3;strokeWidth=2;rounded=0;strokeColor=#FFFFFF;" parent="1" edge="1">
          <mxGeometry width="50" height="50" relative="1" as="geometry">
            <mxPoint x="210" y="1090" as="sourcePoint" />
            <mxPoint x="720" y="1090" as="targetPoint" />
          </mxGeometry>
        </mxCell>
        <mxCell id="Pq9NqkpWgCPSY480fqht-6" value="" style="endArrow=none;dashed=1;html=1;dashPattern=1 3;strokeWidth=2;rounded=0;strokeColor=#FFFFFF;" parent="1" edge="1">
          <mxGeometry width="50" height="50" relative="1" as="geometry">
            <mxPoint x="200" y="940" as="sourcePoint" />
            <mxPoint x="710" y="940" as="targetPoint" />
          </mxGeometry>
        </mxCell>
        <mxCell id="Pq9NqkpWgCPSY480fqht-7" value="" style="endArrow=none;dashed=1;html=1;dashPattern=1 3;strokeWidth=2;rounded=0;strokeColor=#FFFFFF;" parent="1" edge="1">
          <mxGeometry width="50" height="50" relative="1" as="geometry">
            <mxPoint x="10" y="867.5" as="sourcePoint" />
            <mxPoint x="10" y="27.5" as="targetPoint" />
          </mxGeometry>
        </mxCell>
        <mxCell id="Pq9NqkpWgCPSY480fqht-8" value="" style="endArrow=none;dashed=1;html=1;dashPattern=1 3;strokeWidth=2;rounded=0;strokeColor=#FFFFFF;" parent="1" edge="1">
          <mxGeometry width="50" height="50" relative="1" as="geometry">
            <mxPoint x="1090" y="895" as="sourcePoint" />
            <mxPoint x="1090" y="55" as="targetPoint" />
          </mxGeometry>
        </mxCell>
        <mxCell id="8z9Pnd3FHtiSmqOoGasJ-1" value="Content Metadata Service" style="ellipse;whiteSpace=wrap;html=1;fillColor=#dae8fc;strokeColor=#6c8ebf;fontStyle=1" parent="1" vertex="1">
          <mxGeometry x="580" y="650" width="120" height="80" as="geometry" />
        </mxCell>
        <mxCell id="8z9Pnd3FHtiSmqOoGasJ-2" value="" style="endArrow=classic;html=1;rounded=0;exitX=1;exitY=0.5;exitDx=0;exitDy=0;fontStyle=1;entryX=0.07;entryY=0.4;entryDx=0;entryDy=0;entryPerimeter=0;fillColor=#f5f5f5;strokeColor=#666666;" parent="1" source="euWzKXSYzq6Le16y2sov-25" target="8z9Pnd3FHtiSmqOoGasJ-3" edge="1">
          <mxGeometry width="50" height="50" relative="1" as="geometry">
            <mxPoint x="770" y="892.5" as="sourcePoint" />
            <mxPoint x="760" y="872.5" as="targetPoint" />
          </mxGeometry>
        </mxCell>
        <mxCell id="8z9Pnd3FHtiSmqOoGasJ-3" value="Content &lt;br&gt;Repository" style="ellipse;shape=cloud;whiteSpace=wrap;html=1;fontStyle=1;fillColor=#f5f5f5;fontColor=#333333;strokeColor=#666666;" parent="1" vertex="1">
          <mxGeometry x="905" y="837.5" width="140" height="90" as="geometry" />
        </mxCell>
        <mxCell id="8z9Pnd3FHtiSmqOoGasJ-4" value="" style="ellipse;whiteSpace=wrap;html=1;align=center;aspect=fixed;fillColor=none;strokeColor=none;resizable=0;perimeter=centerPerimeter;rotatable=0;allowArrows=0;points=[];outlineConnect=1;fontStyle=1" parent="1" vertex="1">
          <mxGeometry x="370" y="792.5" width="10" height="10" as="geometry" />
        </mxCell>
        <mxCell id="8z9Pnd3FHtiSmqOoGasJ-5" value="" style="ellipse;whiteSpace=wrap;html=1;align=center;aspect=fixed;fillColor=none;strokeColor=none;resizable=0;perimeter=centerPerimeter;rotatable=0;allowArrows=0;points=[];outlineConnect=1;fontStyle=1" parent="1" vertex="1">
          <mxGeometry x="370" y="792.5" width="10" height="10" as="geometry" />
        </mxCell>
        <mxCell id="8z9Pnd3FHtiSmqOoGasJ-6" value="" style="rounded=0;orthogonalLoop=1;jettySize=auto;html=1;endArrow=oval;endFill=0;sketch=0;sourcePerimeterSpacing=0;targetPerimeterSpacing=0;endSize=10;exitX=0;exitY=0.5;exitDx=0;exitDy=0;fontStyle=1" parent="1" source="8z9Pnd3FHtiSmqOoGasJ-1" edge="1">
          <mxGeometry relative="1" as="geometry">
            <mxPoint x="515" y="843" as="sourcePoint" />
            <mxPoint x="540" y="690" as="targetPoint" />
          </mxGeometry>
        </mxCell>
        <mxCell id="8z9Pnd3FHtiSmqOoGasJ-7" value="" style="ellipse;whiteSpace=wrap;html=1;align=center;aspect=fixed;fillColor=none;strokeColor=none;resizable=0;perimeter=centerPerimeter;rotatable=0;allowArrows=0;points=[];outlineConnect=1;fontStyle=1" parent="1" vertex="1">
          <mxGeometry x="510" y="812.5" width="10" height="10" as="geometry" />
        </mxCell>
        <mxCell id="8z9Pnd3FHtiSmqOoGasJ-8" value="" style="rounded=0;orthogonalLoop=1;jettySize=auto;html=1;endArrow=halfCircle;endFill=0;endSize=6;strokeWidth=1;sketch=0;fontStyle=1" parent="1" edge="1">
          <mxGeometry relative="1" as="geometry">
            <mxPoint x="370" y="450" as="sourcePoint" />
            <mxPoint x="540" y="690" as="targetPoint" />
          </mxGeometry>
        </mxCell>
        <mxCell id="8z9Pnd3FHtiSmqOoGasJ-9" value="" style="endArrow=classic;html=1;rounded=0;exitX=0.5;exitY=1;exitDx=0;exitDy=0;fontStyle=1;" parent="1" source="euWzKXSYzq6Le16y2sov-25" target="8z9Pnd3FHtiSmqOoGasJ-10" edge="1">
          <mxGeometry width="50" height="50" relative="1" as="geometry">
            <mxPoint x="575" y="883" as="sourcePoint" />
            <mxPoint x="505" y="970" as="targetPoint" />
          </mxGeometry>
        </mxCell>
        <mxCell id="8z9Pnd3FHtiSmqOoGasJ-10" value="Content&amp;nbsp;&lt;br&gt;Repository" style="shape=cylinder3;whiteSpace=wrap;html=1;boundedLbl=1;backgroundOutline=1;size=15;" parent="1" vertex="1">
          <mxGeometry x="470" y="950" width="75" height="100" as="geometry" />
        </mxCell>
      </root>
    </mxGraphModel>
  </diagram>
</mxfile>
